{
  "accessors": [
    {
      "bufferView": 0,
      "componentType": 5123,
      "count": 2979,
      "type": "SCALAR"
    },
    {
      "bufferView": 1,
      "componentType": 5126,
      "count": 1338,
      "max": [
        404.01971435546875,
        322.74365234375,
        162.58921813964844
      ],
      "min": [
        -425.36175537109375,
        -321.5375671386719,
        -162.83807373046875
      ],
      "type": "VEC3"
    },
    {
      "bufferView": 2,
      "componentType": 5126,
      "count": 1338,
      "type": "VEC3"
    },
    {
      "bufferView": 3,
      "componentType": 5126,
      "count": 1338,
      "max": [
        1.5749599933624268,
        0.9740020036697388
      ],
      "min": [
        0.0,
        -0.4556201696395874
      ],
      "type": "VEC2"
    },
    {
      "bufferView": 4,
      "componentType": 5125,
      "count": 73722,
      "type": "SCALAR"
    },
    {
      "bufferView": 5,
      "componentType": 5126,
      "count": 20057,
      "max": [
        431.0296630859375,
        324.54205322265625,
        163.76466369628906
      ],
      "min": [
        -431.4563293457031,
        -325.5913391113281,
        -163.7583770751953
      ],
      "type": "VEC3"
    },
    {
      "bufferView": 6,
      "componentType": 5126,
      "count": 20057,
      "type": "VEC3"
    },
    {
      "bufferView": 7,
      "componentType": 5126,
      "count": 20057,
      "max": [
        0.6863387227058411,
        1.0
      ],
      "min": [
        -0.3297901153564453,
        -1.1656038761138916
      ],
      "type": "VEC2"
    },
    {
      "bufferView": 8,
      "componentType": 5123,
      "count": 78,
      "type": "SCALAR"
    },
    {
      "bufferView": 9,
      "componentType": 5126,
      "count": 46,
      "max": [
        388.15240478515625,
        163.7843475341797,
        93.1790771484375
      ],
      "min": [
        -388.28173828125,
        -289.3253479003906,
        88.07781219482422
      ],
      "type": "VEC3"
    },
    {
      "bufferView": 10,
      "componentType": 5126,
      "count": 46,
      "type": "VEC3"
    },
    {
      "bufferView": 11,
      "componentType": 5126,
      "count": 46,
      "max": [
        0.48136717081069946,
        0.582266628742218
      ],
      "min": [
        0.0,
        0.10316872596740723
      ],
      "type": "VEC2"
    },
    {
      "bufferView": 12,
      "componentType": 5123,
      "count": 948,
      "type": "SCALAR"
    },
    {
      "bufferView": 13,
      "componentType": 5126,
      "count": 432,
      "max": [
        403.2113037109375,
        -325.3648376464844,
        98.4130630493164
      ],
      "min": [
        -403.340576171875,
        -325.4761047363281,
        68.77819061279297
      ],
      "type": "VEC3"
    },
    {
      "bufferView": 14,
      "componentType": 5126,
      "count": 432,
      "type": "VEC3"
    },
    {
      "bufferView": 15,
      "componentType": 5126,
      "count": 432,
      "max": [
        0.3411635756492615,
        0.981870174407959
      ],
      "min": [
        0.004643332678824663,
        0.9193989038467407
      ],
      "type": "VEC2"
    },
    {
      "bufferView": 16,
      "componentType": 5123,
      "count": 2178,
      "type": "SCALAR"
    },
    {
      "bufferView": 17,
      "componentType": 5126,
      "count": 728,
      "max": [
        -370.95843505859375,
        194.05152893066406,
        -21.653736114501953
      ],
      "min": [
        -372.0403747558594,
        175.698486328125,
        -139.236572265625
      ],
      "type": "VEC3"
    },
    {
      "bufferView": 18,
      "componentType": 5126,
      "count": 728,
      "type": "VEC3"
    },
    {
      "bufferView": 19,
      "componentType": 5126,
      "count": 728,
      "max": [
        0.3015664517879486,
        -0.780028223991394
      ],
      "min": [
        0.28581956028938293,
        -0.9225572347640991
      ],
      "type": "VEC2"
    }
  ],
  "asset": {
    "generator": "HS glTF exporter for 3dsmax 1.53 (custom3dsmax@gmail.com)",
    "version": "2.0"
  },
  "bufferViews": [
    {
      "buffer": 0,
      "byteLength": 5960,
      "target": 34963
    },
    {
      "buffer": 0,
      "byteLength": 16056,
      "byteOffset": 5960,
      "target": 34962
    },
    {
      "buffer": 0,
      "byteLength": 16056,
      "byteOffset": 22016,
      "target": 34962
    },
    {
      "buffer": 0,
      "byteLength": 10704,
      "byteOffset": 38072,
      "target": 34962
    },
    {
      "buffer": 0,
      "byteLength": 294888,
      "byteOffset": 48776,
      "target": 34963
    },
    {
      "buffer": 0,
      "byteLength": 240684,
      "byteOffset": 343664,
      "target": 34962
    },
    {
      "buffer": 0,
      "byteLength": 240684,
      "byteOffset": 584348,
      "target": 34962
    },
    {
      "buffer": 0,
      "byteLength": 160456,
      "byteOffset": 825032,
      "target": 34962
    },
    {
      "buffer": 0,
      "byteLength": 156,
      "byteOffset": 985488,
      "target": 34963
    },
    {
      "buffer": 0,
      "byteLength": 552,
      "byteOffset": 985644,
      "target": 34962
    },
    {
      "buffer": 0,
      "byteLength": 552,
      "byteOffset": 986196,
      "target": 34962
    },
    {
      "buffer": 0,
      "byteLength": 368,
      "byteOffset": 986748,
      "target": 34962
    },
    {
      "buffer": 0,
      "byteLength": 1896,
      "byteOffset": 987116,
      "target": 34963
    },
    {
      "buffer": 0,
      "byteLength": 5184,
      "byteOffset": 989012,
      "target": 34962
    },
    {
      "buffer": 0,
      "byteLength": 5184,
      "byteOffset": 994196,
      "target": 34962
    },
    {
      "buffer": 0,
      "byteLength": 3456,
      "byteOffset": 999380,
      "target": 34962
    },
    {
      "buffer": 0,
      "byteLength": 4356,
      "byteOffset": 1002836,
      "target": 34963
    },
    {
      "buffer": 0,
      "byteLength": 8736,
      "byteOffset": 1007192,
      "target": 34962
    },
    {
      "buffer": 0,
      "byteLength": 8736,
      "byteOffset": 1015928,
      "target": 34962
    },
    {
      "buffer": 0,
      "byteLength": 5824,
      "byteOffset": 1024664,
      "target": 34962
    }
  ],
  "buffers": [
    {
      "byteLength": 1030488,
      "uri": "data:application/octet-stream;base64,"
    }
  ],
  "materials": [
    {
      "name": "Material #43",
      "pbrMetallicRoughness": {
        "baseColorFactor": [
          0.054592281579971313,
          0.06772459298372269,
          0.08021926134824753,
          1.0
        ],
        "metallicFactor": 0.0,
        "roughnessFactor": 0.349
      }
    },
    {
      "name": "Material #43",
      "pbrMetallicRoughness": {
        "baseColorFactor": [
          0.054592281579971313,
          0.06772459298372269,
          0.08021926134824753,
          1.0
        ],
        "metallicFactor": 0.0,
        "roughnessFactor": 0.349
      }
    },
    {
      "name": "Material #45",
      "pbrMetallicRoughness": {
        "baseColorFactor": [
          0.899384617805481,
          0.8912621736526489,
          0.8591737151145935,
          1.0
        ],
        "metallicFactor": 0.0,
        "roughnessFactor": 0.5
      }
    },
    {
      "name": "Material #44",
      "pbrMetallicRoughness": {
        "baseColorFactor": [
          0.5668098330497742,
          0.5668098330497742,
          0.5604992508888245,
          1.0
        ],
        "metallicFactor": 0.3,
        "roughnessFactor": 0.6
      }
    },
    {
      "name": "Material #46",
      "pbrMetallicRoughness": {
        "baseColorFactor": [
          0.6870309114456177,
          0.6870309114456177,
          0.6800204515457153,
          1.0
        ],
        "metallicFactor": 0.349,
        "roughnessFactor": 0.55
      }
    },
    {
      "name": "Material #47",
      "pbrMetallicRoughness": {
        "baseColorFactor": [
          0.8831798434257507,
          0.8122416138648987,
          0.7445303201675415,
          1.0
        ],
        "metallicFactor": 0.0,
        "roughnessFactor": 0.4
      }
    },
    {
      "name": "Material #48",
      "pbrMetallicRoughness": {
        "baseColorFactor": [
          0.06772459298372269,
          0.058187179267406464,
          0.04455263167619705,
          1.0
        ],
        "metallicFactor": 0.8,
        "roughnessFactor": 0.4
      }
    }
  ],
  "meshes": [
    {
      "name": "Object003",
      "primitives": [
        {
          "attributes": {
            "NORMAL": 2,
            "POSITION": 1,
            "TEXCOORD_0": 3
          },
          "indices": 0,
          "material": 0,
          "mode": 4
        },
        {
          "attributes": {
            "NORMAL": 6,
            "POSITION": 5,
            "TEXCOORD_0": 7
          },
          "indices": 4,
          "material": 0,
          "mode": 4
        },
        {
          "attributes": {
            "NORMAL": 10,
            "POSITION": 9,
            "TEXCOORD_0": 11
          },
          "indices": 8,
          "material": 2,
          "mode": 4
        },
        {
          "attributes": {
            "NORMAL": 14,
            "POSITION": 13,
            "TEXCOORD_0": 15
          },
          "indices": 12,
          "material": 3,
          "mode": 4
        },
        {
          "attributes": {
            "NORMAL": 18,
            "POSITION": 17,
            "TEXCOORD_0": 19
          },
          "indices": 16,
          "material": 4,
          "mode": 4
        }
      ]
    }
  ],
  "nodes": [
    {
      "matrix": [
        1.0,
        0.0,
        0.0,
        0.0,
        0.0,
        0.0,
        -1.0,
        0.0,
        0.0,
        1.0,
        0.0,
        0.0,
        8.44140625,
        -2.21596622467041,
        -4.019885063171387,
        1.0
      ],
      "mesh": 0,
      "name": "Object003"
    }
  ],
  "scene": 0,
  "scenes": [
    {
      "nodes": [
        0
      ]
    }
  ]
}
